<svg xmlns="http://www.w3.org/2000/svg" xmlns:xlink="http://www.w3.org/1999/xlink" width="444" zoomAndPan="magnify" viewBox="0 0 333 181.5" height="242" preserveAspectRatio="xMidYMid meet" version="1.0"><defs><g/><clipPath id="2815e099f5"><path d="M 75.902344 0 L 225 0 L 225 181 L 75.902344 181 Z M 75.902344 0 " clip-rule="nonzero"/></clipPath><clipPath id="3672098cf2"><path d="M 137 18 L 256.15625 18 L 256.15625 163 L 137 163 Z M 137 18 " clip-rule="nonzero"/></clipPath></defs><g clip-path="url(#2815e099f5)"><path fill="#163b6d" d="M 184.800781 170.328125 C 140.785156 170.328125 105.105469 134.589844 105.105469 90.5 C 105.105469 46.410156 140.785156 10.671875 184.800781 10.671875 C 199.085938 10.671875 212.476562 14.453125 224.070312 21.042969 C 208.398438 7.929688 188.226562 0.0273438 166.207031 0.0273438 C 116.324219 0.0273438 75.886719 40.535156 75.886719 90.5 C 75.886719 140.46875 116.324219 180.972656 166.207031 180.972656 C 188.226562 180.972656 208.398438 173.070312 224.070312 159.957031 C 212.476562 166.546875 199.085938 170.328125 184.800781 170.328125 " fill-opacity="1" fill-rule="nonzero"/></g><g clip-path="url(#3672098cf2)"><path fill="#4f4c4c" d="M 169.140625 154.253906 C 204.292969 154.253906 232.785156 125.707031 232.785156 90.5 C 232.785156 55.292969 204.292969 26.75 169.140625 26.75 C 157.738281 26.75 147.042969 29.769531 137.785156 35.03125 C 150.300781 24.558594 166.40625 18.25 183.992188 18.25 C 223.828125 18.25 256.121094 50.597656 256.121094 90.5 C 256.121094 130.402344 223.828125 162.75 183.992188 162.75 C 166.40625 162.75 150.300781 156.441406 137.785156 145.96875 C 147.042969 151.230469 157.738281 154.253906 169.140625 154.253906 " fill-opacity="1" fill-rule="nonzero"/></g><g fill="#163b6d" fill-opacity="1"><g transform="translate(50.617387, 107.1922)"><g><path d="M 14.796875 -23.84375 L 14.796875 -2.609375 C 14.828125 -1.984375 15.0625 -1.453125 15.5 -1.015625 C 15.945312 -0.578125 16.484375 -0.359375 17.109375 -0.359375 L 17.546875 -0.359375 L 17.59375 0 L 6.59375 0 L 6.59375 -0.359375 L 7.0625 -0.359375 C 7.664062 -0.359375 8.1875 -0.578125 8.625 -1.015625 C 9.070312 -1.453125 9.320312 -1.96875 9.375 -2.5625 L 9.375 -23.84375 L 4.484375 -23.84375 C 3.378906 -23.820312 2.5 -23.472656 1.84375 -22.796875 C 1.195312 -22.117188 0.875 -21.238281 0.875 -20.15625 L 0.875 -19.71875 L 0.5 -19.71875 L 0.5 -26.015625 C 1.488281 -25.609375 2.914062 -25.394531 4.78125 -25.375 L 19.359375 -25.375 C 20.109375 -25.375 20.921875 -25.441406 21.796875 -25.578125 C 22.679688 -25.722656 23.289062 -25.867188 23.625 -26.015625 L 23.625 -19.71875 L 23.265625 -19.71875 L 23.265625 -20.15625 C 23.265625 -21.65625 22.695312 -22.71875 21.5625 -23.34375 C 21.03125 -23.65625 20.394531 -23.820312 19.65625 -23.84375 Z M 14.796875 -23.84375 "/></g></g></g><g fill="#163b6d" fill-opacity="1"><g transform="translate(74.715822, 107.1922)"><g><path d="M 19.140625 -0.359375 C 19.765625 -0.359375 20.25 -0.515625 20.59375 -0.828125 C 21.144531 -1.390625 21.429688 -1.984375 21.453125 -2.609375 L 21.453125 -11.828125 L 9.734375 -11.828125 L 9.734375 -2.640625 C 9.734375 -2.015625 9.960938 -1.476562 10.421875 -1.03125 C 10.878906 -0.582031 11.421875 -0.359375 12.046875 -0.359375 L 12.484375 -0.359375 L 12.515625 0 L 1.515625 0 L 1.515625 -0.359375 L 1.984375 -0.359375 C 2.617188 -0.359375 3.15625 -0.582031 3.59375 -1.03125 C 4.039062 -1.476562 4.28125 -2.015625 4.3125 -2.640625 L 4.3125 -22.6875 C 4.28125 -23.3125 4.039062 -23.847656 3.59375 -24.296875 C 3.15625 -24.742188 2.617188 -24.96875 1.984375 -24.96875 L 1.515625 -24.96875 L 1.515625 -25.328125 L 12.515625 -25.328125 L 12.484375 -24.96875 L 12.046875 -24.96875 C 11.421875 -24.96875 10.878906 -24.742188 10.421875 -24.296875 C 9.960938 -23.847656 9.734375 -23.3125 9.734375 -22.6875 L 9.734375 -13.390625 L 21.453125 -13.390625 L 21.453125 -22.6875 C 21.429688 -23.3125 21.195312 -23.847656 20.75 -24.296875 C 20.300781 -24.742188 19.765625 -24.96875 19.140625 -24.96875 L 18.671875 -24.96875 L 18.671875 -25.328125 L 29.671875 -25.328125 L 29.671875 -24.96875 L 29.203125 -24.96875 C 28.578125 -24.96875 28.035156 -24.742188 27.578125 -24.296875 C 27.117188 -23.847656 26.890625 -23.3125 26.890625 -22.6875 L 26.890625 -2.640625 C 26.890625 -2.015625 27.117188 -1.476562 27.578125 -1.03125 C 28.035156 -0.582031 28.578125 -0.359375 29.203125 -0.359375 L 29.671875 -0.359375 L 29.671875 0 L 18.671875 0 L 18.671875 -0.359375 Z M 19.140625 -0.359375 "/></g></g></g><g fill="#163b6d" fill-opacity="1"><g transform="translate(105.870102, 107.1922)"><g><path d="M 13.453125 -27.90625 L 13.203125 -27.640625 C 10.785156 -28.222656 8.3125 -29.3125 5.78125 -30.90625 C 6.269531 -32.28125 7.09375 -33.253906 8.25 -33.828125 C 10.707031 -31.640625 12.441406 -29.664062 13.453125 -27.90625 Z M 26.703125 -0.359375 L 27.03125 -0.359375 L 27.03125 0 L 15.484375 0 L 15.484375 -0.359375 L 15.8125 -0.359375 C 16.34375 -0.359375 16.734375 -0.519531 16.984375 -0.84375 C 17.234375 -1.175781 17.359375 -1.484375 17.359375 -1.765625 C 17.359375 -2.054688 17.300781 -2.347656 17.1875 -2.640625 L 15.40625 -7.09375 L 6.9375 -7.09375 L 5.0625 -2.640625 C 4.9375 -2.328125 4.875 -2.070312 4.875 -1.875 C 4.875 -1.6875 4.914062 -1.476562 5 -1.25 C 5.09375 -1.019531 5.273438 -0.8125 5.546875 -0.625 C 5.828125 -0.445312 6.132812 -0.359375 6.46875 -0.359375 L 6.765625 -0.359375 L 6.765625 0 L -0.984375 0 L -0.984375 -0.359375 L -0.65625 -0.359375 C -0.101562 -0.359375 0.445312 -0.523438 1 -0.859375 C 1.5625 -1.203125 2.023438 -1.710938 2.390625 -2.390625 L 10.75 -21.3125 C 11.875 -23.695312 12.472656 -25.28125 12.546875 -26.0625 L 12.875 -26.0625 L 23.625 -2.453125 C 23.988281 -1.753906 24.445312 -1.226562 25 -0.875 C 25.550781 -0.53125 26.117188 -0.359375 26.703125 -0.359375 Z M 7.5625 -8.609375 L 14.796875 -8.609375 L 11.28125 -17.515625 Z M 7.5625 -8.609375 "/></g></g></g><g fill="#163b6d" fill-opacity="1"><g transform="translate(131.777728, 107.1922)"><g><path d="M 29.5625 -24.96875 C 28.71875 -24.96875 28.078125 -24.609375 27.640625 -23.890625 C 27.453125 -23.566406 27.347656 -23.203125 27.328125 -22.796875 L 27.328125 -4.125 C 27.328125 -2.507812 27.429688 -1.144531 27.640625 -0.03125 L 27.75 0.5 L 27.4375 0.5 L 9.15625 -16.90625 L 9.15625 -2.53125 C 9.15625 -1.925781 9.367188 -1.410156 9.796875 -0.984375 C 10.234375 -0.566406 10.753906 -0.359375 11.359375 -0.359375 L 12.046875 -0.359375 L 12.046875 0 L 1.078125 0 L 1.078125 -0.359375 L 1.734375 -0.359375 C 2.359375 -0.359375 2.890625 -0.566406 3.328125 -0.984375 C 3.765625 -1.410156 3.984375 -1.9375 3.984375 -2.5625 L 3.984375 -21.34375 C 3.984375 -22.9375 3.875 -24.265625 3.65625 -25.328125 L 3.578125 -25.875 L 3.90625 -25.875 L 22.1875 -8.46875 L 22.1875 -22.765625 C 22.15625 -23.390625 21.921875 -23.910156 21.484375 -24.328125 C 21.054688 -24.753906 20.539062 -24.96875 19.9375 -24.96875 L 19.28125 -24.96875 L 19.28125 -25.328125 L 30.25 -25.328125 L 30.25 -24.96875 Z M 29.5625 -24.96875 "/></g></g></g><g fill="#163b6d" fill-opacity="1"><g transform="translate(163.076747, 107.1922)"><g><path d="M 19.140625 -0.359375 C 19.765625 -0.359375 20.25 -0.515625 20.59375 -0.828125 C 21.144531 -1.390625 21.429688 -1.984375 21.453125 -2.609375 L 21.453125 -11.828125 L 9.734375 -11.828125 L 9.734375 -2.640625 C 9.734375 -2.015625 9.960938 -1.476562 10.421875 -1.03125 C 10.878906 -0.582031 11.421875 -0.359375 12.046875 -0.359375 L 12.484375 -0.359375 L 12.515625 0 L 1.515625 0 L 1.515625 -0.359375 L 1.984375 -0.359375 C 2.617188 -0.359375 3.15625 -0.582031 3.59375 -1.03125 C 4.039062 -1.476562 4.28125 -2.015625 4.3125 -2.640625 L 4.3125 -22.6875 C 4.28125 -23.3125 4.039062 -23.847656 3.59375 -24.296875 C 3.15625 -24.742188 2.617188 -24.96875 1.984375 -24.96875 L 1.515625 -24.96875 L 1.515625 -25.328125 L 12.515625 -25.328125 L 12.484375 -24.96875 L 12.046875 -24.96875 C 11.421875 -24.96875 10.878906 -24.742188 10.421875 -24.296875 C 9.960938 -23.847656 9.734375 -23.3125 9.734375 -22.6875 L 9.734375 -13.390625 L 21.453125 -13.390625 L 21.453125 -22.6875 C 21.429688 -23.3125 21.195312 -23.847656 20.75 -24.296875 C 20.300781 -24.742188 19.765625 -24.96875 19.140625 -24.96875 L 18.671875 -24.96875 L 18.671875 -25.328125 L 29.671875 -25.328125 L 29.671875 -24.96875 L 29.203125 -24.96875 C 28.578125 -24.96875 28.035156 -24.742188 27.578125 -24.296875 C 27.117188 -23.847656 26.890625 -23.3125 26.890625 -22.6875 L 26.890625 -2.640625 C 26.890625 -2.015625 27.117188 -1.476562 27.578125 -1.03125 C 28.035156 -0.582031 28.578125 -0.359375 29.203125 -0.359375 L 29.671875 -0.359375 L 29.671875 0 L 18.671875 0 L 18.671875 -0.359375 Z M 19.140625 -0.359375 "/></g></g></g><g fill="#163b6d" fill-opacity="1"><g transform="translate(194.231027, 107.1922)"><g/></g></g><g fill="#163b6d" fill-opacity="1"><g transform="translate(203.276979, 107.1922)"><g><path d="M 14.796875 -23.84375 L 14.796875 -2.609375 C 14.828125 -1.984375 15.0625 -1.453125 15.5 -1.015625 C 15.945312 -0.578125 16.484375 -0.359375 17.109375 -0.359375 L 17.546875 -0.359375 L 17.59375 0 L 6.59375 0 L 6.59375 -0.359375 L 7.0625 -0.359375 C 7.664062 -0.359375 8.1875 -0.578125 8.625 -1.015625 C 9.070312 -1.453125 9.320312 -1.96875 9.375 -2.5625 L 9.375 -23.84375 L 4.484375 -23.84375 C 3.378906 -23.820312 2.5 -23.472656 1.84375 -22.796875 C 1.195312 -22.117188 0.875 -21.238281 0.875 -20.15625 L 0.875 -19.71875 L 0.5 -19.71875 L 0.5 -26.015625 C 1.488281 -25.609375 2.914062 -25.394531 4.78125 -25.375 L 19.359375 -25.375 C 20.109375 -25.375 20.921875 -25.441406 21.796875 -25.578125 C 22.679688 -25.722656 23.289062 -25.867188 23.625 -26.015625 L 23.625 -19.71875 L 23.265625 -19.71875 L 23.265625 -20.15625 C 23.265625 -21.65625 22.695312 -22.71875 21.5625 -23.34375 C 21.03125 -23.65625 20.394531 -23.820312 19.65625 -23.84375 Z M 14.796875 -23.84375 "/></g></g></g><g fill="#163b6d" fill-opacity="1"><g transform="translate(227.375415, 107.1922)"><g><path d="M 6.625 -27.578125 L 6.375 -27.828125 C 7.40625 -29.609375 9.128906 -31.585938 11.546875 -33.765625 C 12.722656 -33.160156 13.539062 -32.179688 14 -30.828125 C 11.539062 -29.265625 9.082031 -28.179688 6.625 -27.578125 Z M 1.984375 -0.359375 C 2.617188 -0.359375 3.15625 -0.582031 3.59375 -1.03125 C 4.039062 -1.476562 4.28125 -2.015625 4.3125 -2.640625 L 4.3125 -22.71875 C 4.28125 -23.351562 4.039062 -23.882812 3.59375 -24.3125 C 3.15625 -24.75 2.617188 -24.96875 1.984375 -24.96875 L 1.515625 -24.96875 L 1.515625 -25.328125 L 12.515625 -25.328125 L 12.484375 -24.96875 L 12.046875 -24.96875 C 11.421875 -24.96875 10.878906 -24.75 10.421875 -24.3125 C 9.960938 -23.882812 9.734375 -23.351562 9.734375 -22.71875 L 9.734375 -2.640625 C 9.734375 -2.015625 9.960938 -1.476562 10.421875 -1.03125 C 10.878906 -0.582031 11.421875 -0.359375 12.046875 -0.359375 L 12.484375 -0.359375 L 12.515625 0 L 1.515625 0 L 1.515625 -0.359375 Z M 1.984375 -0.359375 "/></g></g></g><g fill="#163b6d" fill-opacity="1"><g transform="translate(241.342378, 107.1922)"><g><path d="M 29.5625 -24.96875 C 28.71875 -24.96875 28.078125 -24.609375 27.640625 -23.890625 C 27.453125 -23.566406 27.347656 -23.203125 27.328125 -22.796875 L 27.328125 -4.125 C 27.328125 -2.507812 27.429688 -1.144531 27.640625 -0.03125 L 27.75 0.5 L 27.4375 0.5 L 9.15625 -16.90625 L 9.15625 -2.53125 C 9.15625 -1.925781 9.367188 -1.410156 9.796875 -0.984375 C 10.234375 -0.566406 10.753906 -0.359375 11.359375 -0.359375 L 12.046875 -0.359375 L 12.046875 0 L 1.078125 0 L 1.078125 -0.359375 L 1.734375 -0.359375 C 2.359375 -0.359375 2.890625 -0.566406 3.328125 -0.984375 C 3.765625 -1.410156 3.984375 -1.9375 3.984375 -2.5625 L 3.984375 -21.34375 C 3.984375 -22.9375 3.875 -24.265625 3.65625 -25.328125 L 3.578125 -25.875 L 3.90625 -25.875 L 22.1875 -8.46875 L 22.1875 -22.765625 C 22.15625 -23.390625 21.921875 -23.910156 21.484375 -24.328125 C 21.054688 -24.753906 20.539062 -24.96875 19.9375 -24.96875 L 19.28125 -24.96875 L 19.28125 -25.328125 L 30.25 -25.328125 L 30.25 -24.96875 Z M 29.5625 -24.96875 "/></g></g></g><g fill="#163b6d" fill-opacity="1"><g transform="translate(272.654714, 107.1922)"><g/></g></g><g fill="#4f4c4c" fill-opacity="1"><g transform="translate(112.23718, 120.471751)"><g><path d="M 3.21875 0 L 2.65625 0 L 0.9375 -2.59375 L 0.9375 0 L 0.375 0 L 0.375 -3.46875 L 0.9375 -3.46875 L 2.65625 -0.890625 L 2.65625 -3.46875 L 3.21875 -3.46875 Z M 3.21875 0 "/></g></g></g><g fill="#4f4c4c" fill-opacity="1"><g transform="translate(116.071638, 120.471751)"><g><path d="M 3.140625 -3.46875 L 3.140625 0 L 2.578125 0 L 2.578125 -1.515625 L 0.9375 -1.515625 L 0.9375 0 L 0.375 0 L 0.375 -3.46875 L 0.9375 -3.46875 L 0.9375 -1.984375 L 2.578125 -1.984375 L 2.578125 -3.46875 Z M 3.140625 -3.46875 "/></g></g></g><g fill="#4f4c4c" fill-opacity="1"><g transform="translate(119.826315, 120.471751)"><g><path d="M 2.46875 -0.703125 L 1.015625 -0.703125 L 0.765625 0 L 0.171875 0 L 1.40625 -3.46875 L 2.0625 -3.46875 L 3.3125 0 L 2.71875 0 Z M 2.296875 -1.171875 L 1.734375 -2.78125 L 1.171875 -1.171875 Z M 2.296875 -1.171875 "/></g></g></g><g fill="#4f4c4c" fill-opacity="1"><g transform="translate(123.541106, 120.471751)"><g><path d="M 3.21875 0 L 2.65625 0 L 0.9375 -2.59375 L 0.9375 0 L 0.375 0 L 0.375 -3.46875 L 0.9375 -3.46875 L 2.65625 -0.890625 L 2.65625 -3.46875 L 3.21875 -3.46875 Z M 3.21875 0 "/></g></g></g><g fill="#4f4c4c" fill-opacity="1"><g transform="translate(127.375564, 120.471751)"><g><path d="M 3.140625 -3.46875 L 3.140625 0 L 2.578125 0 L 2.578125 -1.515625 L 0.9375 -1.515625 L 0.9375 0 L 0.375 0 L 0.375 -3.46875 L 0.9375 -3.46875 L 0.9375 -1.984375 L 2.578125 -1.984375 L 2.578125 -3.46875 Z M 3.140625 -3.46875 "/></g></g></g><g fill="#4f4c4c" fill-opacity="1"><g transform="translate(131.130241, 120.471751)"><g/></g></g><g fill="#4f4c4c" fill-opacity="1"><g transform="translate(132.666021, 120.471751)"><g><path d="M 3.09375 -2.046875 L 3.09375 -1.5625 L 0.4375 -1.5625 L 0.4375 -2.046875 Z M 3.09375 -2.046875 "/></g></g></g><g fill="#4f4c4c" fill-opacity="1"><g transform="translate(136.435662, 120.471751)"><g/></g></g><g fill="#4f4c4c" fill-opacity="1"><g transform="translate(137.971441, 120.471751)"><g><path d="M 2.875 -2.46875 C 2.789062 -2.632812 2.664062 -2.757812 2.5 -2.84375 C 2.34375 -2.9375 2.160156 -2.984375 1.953125 -2.984375 C 1.722656 -2.984375 1.519531 -2.929688 1.34375 -2.828125 C 1.164062 -2.734375 1.023438 -2.585938 0.921875 -2.390625 C 0.816406 -2.203125 0.765625 -1.984375 0.765625 -1.734375 C 0.765625 -1.484375 0.816406 -1.265625 0.921875 -1.078125 C 1.023438 -0.890625 1.164062 -0.742188 1.34375 -0.640625 C 1.519531 -0.535156 1.722656 -0.484375 1.953125 -0.484375 C 2.265625 -0.484375 2.515625 -0.566406 2.703125 -0.734375 C 2.898438 -0.910156 3.019531 -1.148438 3.0625 -1.453125 L 1.765625 -1.453125 L 1.765625 -1.90625 L 3.671875 -1.90625 L 3.671875 -1.453125 C 3.628906 -1.179688 3.53125 -0.929688 3.375 -0.703125 C 3.226562 -0.484375 3.03125 -0.304688 2.78125 -0.171875 C 2.53125 -0.0351562 2.253906 0.03125 1.953125 0.03125 C 1.628906 0.03125 1.332031 -0.0390625 1.0625 -0.1875 C 0.789062 -0.34375 0.578125 -0.554688 0.421875 -0.828125 C 0.265625 -1.097656 0.1875 -1.398438 0.1875 -1.734375 C 0.1875 -2.078125 0.265625 -2.382812 0.421875 -2.65625 C 0.578125 -2.925781 0.789062 -3.132812 1.0625 -3.28125 C 1.332031 -3.4375 1.628906 -3.515625 1.953125 -3.515625 C 2.316406 -3.515625 2.644531 -3.421875 2.9375 -3.234375 C 3.226562 -3.054688 3.4375 -2.800781 3.5625 -2.46875 Z M 2.875 -2.46875 "/></g></g></g><g fill="#4f4c4c" fill-opacity="1"><g transform="translate(142.06519, 120.471751)"><g><path d="M 3.59375 -1.78125 C 3.59375 -1.414062 3.53125 -1.09375 3.40625 -0.8125 C 3.28125 -0.539062 3.09375 -0.328125 2.84375 -0.171875 C 2.601562 -0.0234375 2.304688 0.046875 1.953125 0.046875 C 1.578125 0.046875 1.265625 -0.0234375 1.015625 -0.171875 C 0.773438 -0.328125 0.59375 -0.539062 0.46875 -0.8125 C 0.351562 -1.09375 0.296875 -1.421875 0.296875 -1.796875 C 0.296875 -2.148438 0.351562 -2.460938 0.46875 -2.734375 C 0.59375 -3.015625 0.773438 -3.226562 1.015625 -3.375 C 1.265625 -3.53125 1.578125 -3.609375 1.953125 -3.609375 C 2.304688 -3.609375 2.601562 -3.53125 2.84375 -3.375 C 3.09375 -3.226562 3.28125 -3.019531 3.40625 -2.75 C 3.53125 -2.476562 3.59375 -2.15625 3.59375 -1.78125 Z M 0.78125 -1.78125 C 0.78125 -1.332031 0.875 -0.976562 1.0625 -0.71875 C 1.25 -0.46875 1.546875 -0.34375 1.953125 -0.34375 C 2.347656 -0.34375 2.640625 -0.46875 2.828125 -0.71875 C 3.015625 -0.976562 3.109375 -1.332031 3.109375 -1.78125 C 3.109375 -2.226562 3.015625 -2.578125 2.828125 -2.828125 C 2.648438 -3.085938 2.359375 -3.21875 1.953125 -3.21875 C 1.546875 -3.21875 1.25 -3.085938 1.0625 -2.828125 C 0.875 -2.578125 0.78125 -2.226562 0.78125 -1.78125 Z M 1.953125 0.875 C 1.878906 0.875 1.816406 0.847656 1.765625 0.796875 C 1.710938 0.753906 1.6875 0.6875 1.6875 0.59375 C 1.6875 0.5 1.710938 0.425781 1.765625 0.375 C 1.816406 0.332031 1.878906 0.3125 1.953125 0.3125 C 2.015625 0.3125 2.070312 0.332031 2.125 0.375 C 2.175781 0.425781 2.203125 0.5 2.203125 0.59375 C 2.203125 0.6875 2.175781 0.753906 2.125 0.796875 C 2.070312 0.847656 2.015625 0.875 1.953125 0.875 Z M 1.953125 0.875 "/></g></g></g><g fill="#4f4c4c" fill-opacity="1"><g transform="translate(146.198832, 120.471751)"><g><path d="M 3.21875 0 L 2.65625 0 L 0.9375 -2.59375 L 0.9375 0 L 0.375 0 L 0.375 -3.46875 L 0.9375 -3.46875 L 2.65625 -0.890625 L 2.65625 -3.46875 L 3.21875 -3.46875 Z M 3.21875 0 "/></g></g></g><g fill="#4f4c4c" fill-opacity="1"><g transform="translate(150.033292, 120.471751)"><g/></g></g><g fill="#4f4c4c" fill-opacity="1"><g transform="translate(151.56907, 120.471751)"><g><path d="M 3.09375 -2.046875 L 3.09375 -1.5625 L 0.4375 -1.5625 L 0.4375 -2.046875 Z M 3.09375 -2.046875 "/></g></g></g><g fill="#4f4c4c" fill-opacity="1"><g transform="translate(155.338709, 120.471751)"><g/></g></g><g fill="#4f4c4c" fill-opacity="1"><g transform="translate(156.874487, 120.471751)"><g><path d="M 0.9375 -3.46875 L 0.9375 -1.25 C 0.9375 -0.988281 1.003906 -0.789062 1.140625 -0.65625 C 1.273438 -0.53125 1.46875 -0.46875 1.71875 -0.46875 C 1.96875 -0.46875 2.160156 -0.53125 2.296875 -0.65625 C 2.429688 -0.789062 2.5 -0.988281 2.5 -1.25 L 2.5 -3.46875 L 3.078125 -3.46875 L 3.078125 -1.265625 C 3.078125 -0.984375 3.015625 -0.742188 2.890625 -0.546875 C 2.765625 -0.347656 2.597656 -0.203125 2.390625 -0.109375 C 2.191406 -0.015625 1.96875 0.03125 1.71875 0.03125 C 1.46875 0.03125 1.238281 -0.015625 1.03125 -0.109375 C 0.832031 -0.203125 0.671875 -0.347656 0.546875 -0.546875 C 0.429688 -0.742188 0.375 -0.984375 0.375 -1.265625 L 0.375 -3.46875 Z M 0.9375 -3.46875 "/></g></g></g><g fill="#4f4c4c" fill-opacity="1"><g transform="translate(160.554372, 120.471751)"><g><path d="M 2.9375 -3.46875 L 1.796875 -1.25 L 1.796875 0 L 1.21875 0 L 1.21875 -1.25 L 0.078125 -3.46875 L 0.703125 -3.46875 L 1.515625 -1.765625 L 2.3125 -3.46875 Z M 2.9375 -3.46875 "/></g></g></g><g fill="#4f4c4c" fill-opacity="1"><g transform="translate(163.810426, 120.471751)"><g/></g></g><g fill="#4f4c4c" fill-opacity="1"><g transform="translate(165.346204, 120.471751)"><g><path d="M 2.609375 -3.46875 L 2.609375 -3 L 1.6875 -3 L 1.6875 0 L 1.125 0 L 1.125 -3 L 0.1875 -3 L 0.1875 -3.46875 Z M 2.609375 -3.46875 "/></g></g></g><g fill="#4f4c4c" fill-opacity="1"><g transform="translate(168.397816, 120.471751)"><g><path d="M 0.9375 -3.46875 L 0.9375 0 L 0.375 0 L 0.375 -3.46875 Z M 1.171875 -4.203125 L 0.0625 -3.65625 L 0.0625 -4.078125 L 1.171875 -4.6875 Z M 1.171875 -4.203125 "/></g></g></g><g fill="#4f4c4c" fill-opacity="1"><g transform="translate(169.953544, 120.471751)"><g><path d="M 3.21875 0 L 2.65625 0 L 0.9375 -2.59375 L 0.9375 0 L 0.375 0 L 0.375 -3.46875 L 0.9375 -3.46875 L 2.65625 -0.890625 L 2.65625 -3.46875 L 3.21875 -3.46875 Z M 3.21875 0 "/></g></g></g><g fill="#4f4c4c" fill-opacity="1"><g transform="translate(173.788004, 120.471751)"><g/></g></g><g fill="#4f4c4c" fill-opacity="1"><g transform="translate(175.323785, 120.471751)"><g><path d="M 3.09375 -2.046875 L 3.09375 -1.5625 L 0.4375 -1.5625 L 0.4375 -2.046875 Z M 3.09375 -2.046875 "/></g></g></g><g fill="#4f4c4c" fill-opacity="1"><g transform="translate(179.093428, 120.471751)"><g/></g></g><g fill="#4f4c4c" fill-opacity="1"><g transform="translate(180.629209, 120.471751)"><g><path d="M 0.1875 -1.734375 C 0.1875 -2.078125 0.265625 -2.382812 0.421875 -2.65625 C 0.578125 -2.925781 0.789062 -3.132812 1.0625 -3.28125 C 1.332031 -3.4375 1.628906 -3.515625 1.953125 -3.515625 C 2.316406 -3.515625 2.644531 -3.421875 2.9375 -3.234375 C 3.226562 -3.054688 3.4375 -2.800781 3.5625 -2.46875 L 2.875 -2.46875 C 2.789062 -2.644531 2.664062 -2.78125 2.5 -2.875 C 2.34375 -2.96875 2.160156 -3.015625 1.953125 -3.015625 C 1.722656 -3.015625 1.519531 -2.960938 1.34375 -2.859375 C 1.164062 -2.753906 1.023438 -2.601562 0.921875 -2.40625 C 0.816406 -2.21875 0.765625 -1.992188 0.765625 -1.734375 C 0.765625 -1.484375 0.816406 -1.257812 0.921875 -1.0625 C 1.023438 -0.875 1.164062 -0.726562 1.34375 -0.625 C 1.519531 -0.519531 1.722656 -0.46875 1.953125 -0.46875 C 2.160156 -0.46875 2.34375 -0.507812 2.5 -0.59375 C 2.664062 -0.6875 2.789062 -0.820312 2.875 -1 L 3.5625 -1 C 3.4375 -0.675781 3.226562 -0.421875 2.9375 -0.234375 C 2.644531 -0.0546875 2.316406 0.03125 1.953125 0.03125 C 1.628906 0.03125 1.332031 -0.0390625 1.0625 -0.1875 C 0.789062 -0.34375 0.578125 -0.554688 0.421875 -0.828125 C 0.265625 -1.097656 0.1875 -1.398438 0.1875 -1.734375 Z M 0.1875 -1.734375 "/></g></g></g><g fill="#4f4c4c" fill-opacity="1"><g transform="translate(184.722958, 120.471751)"><g><path d="M 1.953125 0.03125 C 1.628906 0.03125 1.332031 -0.0390625 1.0625 -0.1875 C 0.789062 -0.34375 0.578125 -0.554688 0.421875 -0.828125 C 0.265625 -1.097656 0.1875 -1.398438 0.1875 -1.734375 C 0.1875 -2.078125 0.265625 -2.382812 0.421875 -2.65625 C 0.578125 -2.925781 0.789062 -3.132812 1.0625 -3.28125 C 1.332031 -3.4375 1.628906 -3.515625 1.953125 -3.515625 C 2.273438 -3.515625 2.570312 -3.4375 2.84375 -3.28125 C 3.113281 -3.132812 3.328125 -2.925781 3.484375 -2.65625 C 3.640625 -2.382812 3.71875 -2.078125 3.71875 -1.734375 C 3.71875 -1.398438 3.640625 -1.097656 3.484375 -0.828125 C 3.328125 -0.554688 3.113281 -0.34375 2.84375 -0.1875 C 2.570312 -0.0390625 2.273438 0.03125 1.953125 0.03125 Z M 1.953125 -0.453125 C 2.179688 -0.453125 2.382812 -0.503906 2.5625 -0.609375 C 2.75 -0.710938 2.890625 -0.863281 2.984375 -1.0625 C 3.085938 -1.257812 3.140625 -1.484375 3.140625 -1.734375 C 3.140625 -1.992188 3.085938 -2.21875 2.984375 -2.40625 C 2.890625 -2.601562 2.75 -2.753906 2.5625 -2.859375 C 2.382812 -2.960938 2.179688 -3.015625 1.953125 -3.015625 C 1.722656 -3.015625 1.519531 -2.960938 1.34375 -2.859375 C 1.164062 -2.753906 1.023438 -2.601562 0.921875 -2.40625 C 0.816406 -2.21875 0.765625 -1.992188 0.765625 -1.734375 C 0.765625 -1.484375 0.816406 -1.257812 0.921875 -1.0625 C 1.023438 -0.863281 1.164062 -0.710938 1.34375 -0.609375 C 1.519531 -0.503906 1.722656 -0.453125 1.953125 -0.453125 Z M 2.46875 -4.203125 L 1.359375 -3.65625 L 1.359375 -4.078125 L 2.46875 -4.6875 Z M 2.46875 -4.203125 "/></g></g></g><g fill="#4f4c4c" fill-opacity="1"><g transform="translate(188.871557, 120.471751)"><g/></g></g><g fill="#4f4c4c" fill-opacity="1"><g transform="translate(190.407338, 120.471751)"><g><path d="M 2.609375 -3.46875 L 2.609375 -3 L 1.6875 -3 L 1.6875 0 L 1.125 0 L 1.125 -3 L 0.1875 -3 L 0.1875 -3.46875 Z M 2.609375 -3.46875 "/></g></g></g><g fill="#4f4c4c" fill-opacity="1"><g transform="translate(193.458953, 120.471751)"><g><path d="M 3.140625 -3.46875 L 3.140625 0 L 2.578125 0 L 2.578125 -1.515625 L 0.9375 -1.515625 L 0.9375 0 L 0.375 0 L 0.375 -3.46875 L 0.9375 -3.46875 L 0.9375 -1.984375 L 2.578125 -1.984375 L 2.578125 -3.46875 Z M 3.140625 -3.46875 "/></g></g></g><g fill="#4f4c4c" fill-opacity="1"><g transform="translate(197.213632, 120.471751)"><g><path d="M 2.46875 -0.703125 L 1.015625 -0.703125 L 0.765625 0 L 0.171875 0 L 1.40625 -3.46875 L 2.0625 -3.46875 L 3.3125 0 L 2.71875 0 Z M 2.296875 -1.171875 L 1.734375 -2.78125 L 1.171875 -1.171875 Z M 2.25 -4.078125 L 2.25 -3.65625 L 1.140625 -4.203125 L 1.140625 -4.6875 Z M 2.25 -4.078125 "/></g></g></g><g fill="#4f4c4c" fill-opacity="1"><g transform="translate(200.928424, 120.471751)"><g><path d="M 3.21875 0 L 2.65625 0 L 0.9375 -2.59375 L 0.9375 0 L 0.375 0 L 0.375 -3.46875 L 0.9375 -3.46875 L 2.65625 -0.890625 L 2.65625 -3.46875 L 3.21875 -3.46875 Z M 3.21875 0 "/></g></g></g><g fill="#4f4c4c" fill-opacity="1"><g transform="translate(204.762884, 120.471751)"><g><path d="M 3.140625 -3.46875 L 3.140625 0 L 2.578125 0 L 2.578125 -1.515625 L 0.9375 -1.515625 L 0.9375 0 L 0.375 0 L 0.375 -3.46875 L 0.9375 -3.46875 L 0.9375 -1.984375 L 2.578125 -1.984375 L 2.578125 -3.46875 Z M 3.140625 -3.46875 "/></g></g></g><g fill="#4f4c4c" fill-opacity="1"><g transform="translate(208.517563, 120.471751)"><g/></g></g><g fill="#4f4c4c" fill-opacity="1"><g transform="translate(210.053344, 120.471751)"><g><path d="M 2.609375 -3.46875 L 2.609375 -3 L 1.6875 -3 L 1.6875 0 L 1.125 0 L 1.125 -3 L 0.1875 -3 L 0.1875 -3.46875 Z M 2.609375 -3.46875 "/></g></g></g><g fill="#4f4c4c" fill-opacity="1"><g transform="translate(213.10496, 120.471751)"><g><path d="M 0.9375 -3.46875 L 0.9375 0 L 0.375 0 L 0.375 -3.46875 Z M 1.171875 -4.203125 L 0.0625 -3.65625 L 0.0625 -4.078125 L 1.171875 -4.6875 Z M 1.171875 -4.203125 "/></g></g></g><g fill="#4f4c4c" fill-opacity="1"><g transform="translate(214.660688, 120.471751)"><g><path d="M 3.21875 0 L 2.65625 0 L 0.9375 -2.59375 L 0.9375 0 L 0.375 0 L 0.375 -3.46875 L 0.9375 -3.46875 L 2.65625 -0.890625 L 2.65625 -3.46875 L 3.21875 -3.46875 Z M 3.21875 0 "/></g></g></g><g fill="#4f4c4c" fill-opacity="1"><g transform="translate(218.495147, 120.471751)"><g><path d="M 1.09375 -3.46875 L 1.015625 -1.046875 L 0.546875 -1.046875 L 0.484375 -3.46875 Z M 0.796875 0.03125 C 0.691406 0.03125 0.601562 0 0.53125 -0.0625 C 0.46875 -0.132812 0.4375 -0.222656 0.4375 -0.328125 C 0.4375 -0.429688 0.46875 -0.515625 0.53125 -0.578125 C 0.601562 -0.648438 0.691406 -0.6875 0.796875 -0.6875 C 0.898438 -0.6875 0.984375 -0.648438 1.046875 -0.578125 C 1.117188 -0.515625 1.15625 -0.429688 1.15625 -0.328125 C 1.15625 -0.222656 1.117188 -0.132812 1.046875 -0.0625 C 0.984375 0 0.898438 0.03125 0.796875 0.03125 Z M 0.796875 0.03125 "/></g></g></g></svg>