<svg xmlns="http://www.w3.org/2000/svg" xmlns:xlink="http://www.w3.org/1999/xlink" width="105" zoomAndPan="magnify" viewBox="0 0 78.75 98.999996" height="132" preserveAspectRatio="xMidYMid meet" version="1.0"><defs><clipPath id="523d97690e"><path d="M 0 20.230469 L 78.5 20.230469 L 78.5 98.730469 L 0 98.730469 Z M 0 20.230469 " clip-rule="nonzero"/></clipPath><clipPath id="8e77a6e6b0"><path d="M 0 0.15625 L 67 0.15625 L 67 80 L 0 80 Z M 0 0.15625 " clip-rule="nonzero"/></clipPath><clipPath id="7a53bec27a"><path d="M 0.00390625 61.996094 L 37.484375 0.152344 L 66.144531 17.519531 L 28.664062 79.367188 Z M 0.00390625 61.996094 " clip-rule="nonzero"/></clipPath><clipPath id="d905c4591c"><path d="M 0 0.15625 L 67 0.15625 L 67 80 L 0 80 Z M 0 0.15625 " clip-rule="nonzero"/></clipPath><clipPath id="caf361a154"><path d="M 0.00390625 61.996094 L 37.585938 -0.0234375 L 66.359375 17.414062 L 28.773438 79.433594 Z M 0.00390625 61.996094 " clip-rule="nonzero"/></clipPath><clipPath id="849e47d6b1"><path d="M 0.00390625 61.992188 L 37.476562 0.164062 L 66.128906 17.527344 L 28.65625 79.355469 Z M 0.00390625 61.992188 " clip-rule="nonzero"/></clipPath><clipPath id="4c65a60e77"><path d="M 7 9 L 43 9 L 43 65 L 7 65 Z M 7 9 " clip-rule="nonzero"/></clipPath><clipPath id="bf664980dc"><path d="M 7.660156 62.972656 L 40.058594 9.507812 L 42.070312 10.726562 L 9.667969 64.191406 Z M 7.660156 62.972656 " clip-rule="nonzero"/></clipPath><clipPath id="ffef46875a"><path d="M 12 2 L 78.5 2 L 78.5 83 L 12 83 Z M 12 2 " clip-rule="nonzero"/></clipPath><clipPath id="cabbf8bb8e"><path d="M 12 64.792969 L 49.480469 2.945312 L 78.140625 20.316406 L 40.660156 82.164062 Z M 12 64.792969 " clip-rule="nonzero"/></clipPath><clipPath id="d1868fa1ad"><path d="M 12 2 L 78.5 2 L 78.5 83 L 12 83 Z M 12 2 " clip-rule="nonzero"/></clipPath><clipPath id="d76c0a8b37"><path d="M 12 64.792969 L 49.582031 2.773438 L 78.355469 20.210938 L 40.769531 82.230469 Z M 12 64.792969 " clip-rule="nonzero"/></clipPath><clipPath id="52d031d90b"><path d="M 12.003906 64.789062 L 49.472656 2.960938 L 78.125 20.324219 L 40.65625 82.152344 Z M 12.003906 64.789062 " clip-rule="nonzero"/></clipPath><clipPath id="b71f3e619e"><path d="M 19 12 L 55 12 L 55 67 L 19 67 Z M 19 12 " clip-rule="nonzero"/></clipPath><clipPath id="293713c66d"><path d="M 19.65625 65.769531 L 52.054688 12.300781 L 54.066406 13.519531 L 21.664062 66.988281 Z M 19.65625 65.769531 " clip-rule="nonzero"/></clipPath><clipPath id="11f82f0bae"><path d="M 25 16 L 61 16 L 61 71 L 25 71 Z M 25 16 " clip-rule="nonzero"/></clipPath><clipPath id="dc6c1424fb"><path d="M 25.941406 69.578125 L 58.339844 16.113281 L 60.351562 17.332031 L 27.949219 70.796875 Z M 25.941406 69.578125 " clip-rule="nonzero"/></clipPath><clipPath id="c59e6b4e59"><path d="M 50 18 L 70 18 L 70 43 L 50 43 Z M 50 18 " clip-rule="nonzero"/></clipPath><clipPath id="f701de1533"><path d="M 50.683594 38.285156 L 62.566406 18.671875 L 69.269531 22.734375 L 57.386719 42.347656 Z M 50.683594 38.285156 " clip-rule="nonzero"/></clipPath><clipPath id="a8423b1659"><path d="M 0 38.382812 L 67.839844 38.382812 L 67.839844 82.359375 L 0 82.359375 Z M 0 38.382812 " clip-rule="nonzero"/></clipPath><clipPath id="3f8f5916bc"><path d="M 60.335938 61.648438 L 72.175781 61.648438 L 72.175781 75 L 60.335938 75 Z M 60.335938 61.648438 " clip-rule="nonzero"/></clipPath><clipPath id="915bccf306"><path d="M 66.253906 61.648438 C 62.988281 61.648438 60.335938 64.636719 60.335938 68.324219 C 60.335938 72.007812 62.988281 75 66.253906 75 C 69.523438 75 72.175781 72.007812 72.175781 68.324219 C 72.175781 64.636719 69.523438 61.648438 66.253906 61.648438 Z M 66.253906 61.648438 " clip-rule="nonzero"/></clipPath><clipPath id="f85a35f9bb"><path d="M 63.296875 62.5625 L 71.984375 62.5625 L 71.984375 74.335938 L 63.296875 74.335938 Z M 63.296875 62.5625 " clip-rule="nonzero"/></clipPath><clipPath id="9d5addc985"><path d="M 67.640625 62.5625 C 65.242188 62.5625 63.296875 65.195312 63.296875 68.441406 C 63.296875 71.6875 65.242188 74.316406 67.640625 74.316406 C 70.039062 74.316406 71.984375 71.6875 71.984375 68.441406 C 71.984375 65.195312 70.039062 62.5625 67.640625 62.5625 Z M 67.640625 62.5625 " clip-rule="nonzero"/></clipPath></defs><g clip-path="url(#523d97690e)"><path fill="#363f4e" d="M 69.113281 38.257812 C 69.113281 38.257812 16.949219 38.257812 7.957031 38.257812 C 5.320312 38.257812 2.976562 37.730469 2.976562 35.253906 L 69.113281 32.25 L 69.113281 26.238281 C 69.113281 21.265625 65.074219 20.230469 60.097656 20.230469 L 6.074219 29.246094 C 1.257812 30.316406 0 32.355469 0 35.253906 L 0 89.34375 C 0 94.320312 4.039062 98.355469 9.015625 98.355469 L 69.113281 98.355469 C 74.089844 98.355469 78.128906 94.320312 78.128906 89.34375 L 78.128906 47.273438 C 78.128906 42.296875 74.089844 38.257812 69.113281 38.257812 Z M 66.109375 74.316406 C 62.789062 74.316406 60.097656 71.625 60.097656 68.308594 C 60.097656 64.992188 62.789062 62.296875 66.109375 62.296875 C 69.425781 62.296875 72.117188 64.992188 72.117188 68.308594 C 72.117188 71.625 69.425781 74.316406 66.109375 74.316406 Z M 66.109375 74.316406 " fill-opacity="1" fill-rule="nonzero"/></g><g clip-path="url(#8e77a6e6b0)"><g clip-path="url(#7a53bec27a)"><path fill="#3991cd" d="M 0.00390625 61.996094 L 37.453125 0.199219 L 66.113281 17.566406 L 28.664062 79.367188 Z M 0.00390625 61.996094 " fill-opacity="1" fill-rule="nonzero"/></g></g><g clip-path="url(#d905c4591c)"><g clip-path="url(#caf361a154)"><g clip-path="url(#849e47d6b1)"><path stroke-linecap="butt" transform="matrix(0.387474, -0.639382, 0.639382, 0.387474, 0.00584491, 61.992112)" fill="none" stroke-linejoin="miter" d="M -0.00143016 -0.00216538 L 96.701153 0.00242133 L 96.701623 44.814687 L -0.0009599 44.810101 Z M -0.00143016 -0.00216538 " stroke="#ffffff" stroke-width="8" stroke-opacity="1" stroke-miterlimit="4"/></g></g></g><g clip-path="url(#4c65a60e77)"><g clip-path="url(#bf664980dc)"><path fill="#ffffff" d="M 7.660156 62.972656 L 40.058594 9.507812 L 42.070312 10.726562 L 9.667969 64.191406 Z M 7.660156 62.972656 " fill-opacity="1" fill-rule="nonzero"/></g></g><g clip-path="url(#ffef46875a)"><g clip-path="url(#cabbf8bb8e)"><path fill="#3991cd" d="M 12 64.792969 L 49.449219 2.992188 L 78.109375 20.363281 L 40.660156 82.164062 Z M 12 64.792969 " fill-opacity="1" fill-rule="nonzero"/></g></g><g clip-path="url(#d1868fa1ad)"><g clip-path="url(#d76c0a8b37)"><g clip-path="url(#52d031d90b)"><path stroke-linecap="butt" transform="matrix(0.387474, -0.639382, 0.639382, 0.387474, 12.002101, 64.787891)" fill="none" stroke-linejoin="miter" d="M -0.0000888873 0.002877 L 96.699786 0.00299533 L 96.700256 44.815261 L 0.000381373 44.815143 Z M -0.0000888873 0.002877 " stroke="#ffffff" stroke-width="8" stroke-opacity="1" stroke-miterlimit="4"/></g></g></g><g clip-path="url(#b71f3e619e)"><g clip-path="url(#293713c66d)"><path fill="#ffffff" d="M 19.65625 65.769531 L 52.054688 12.304688 L 54.066406 13.523438 L 21.664062 66.988281 Z M 19.65625 65.769531 " fill-opacity="1" fill-rule="nonzero"/></g></g><g clip-path="url(#11f82f0bae)"><g clip-path="url(#dc6c1424fb)"><path fill="#ffffff" d="M 25.941406 69.578125 L 58.339844 16.113281 L 60.351562 17.332031 L 27.949219 70.796875 Z M 25.941406 69.578125 " fill-opacity="1" fill-rule="nonzero"/></g></g><g clip-path="url(#c59e6b4e59)"><g clip-path="url(#f701de1533)"><path fill="#ffffff" d="M 50.683594 38.285156 L 62.570312 18.667969 L 69.273438 22.730469 L 57.386719 42.347656 Z M 50.683594 38.285156 " fill-opacity="1" fill-rule="nonzero"/></g></g><g clip-path="url(#a8423b1659)"><path fill="#363f4e" d="M 0 38.382812 L 67.855469 38.382812 L 67.855469 82.359375 L 0 82.359375 Z M 0 38.382812 " fill-opacity="1" fill-rule="nonzero"/></g><g clip-path="url(#3f8f5916bc)"><g clip-path="url(#915bccf306)"><path fill="#ffffff" d="M 60.335938 61.648438 L 72.175781 61.648438 L 72.175781 75.011719 L 60.335938 75.011719 Z M 60.335938 61.648438 " fill-opacity="1" fill-rule="nonzero"/></g></g><g clip-path="url(#f85a35f9bb)"><g clip-path="url(#9d5addc985)"><path fill="#3991cd" d="M 63.296875 62.5625 L 71.984375 62.5625 L 71.984375 74.300781 L 63.296875 74.300781 Z M 63.296875 62.5625 " fill-opacity="1" fill-rule="nonzero"/></g></g></svg>